<svg xmlns="http://www.w3.org/2000/svg" width="17" height="17" viewBox="0 0 17 17">
    <defs>
        <clipPath id="clip-path">
            <path id="Icon" d="M15.2 16H.8a.8.8 0 0 1-.8-.8V2.4a.8.8 0 0 1 .8-.8h2.4V.8a.8.8 0 0 1 1.6 0v.8h6.4V.8a.8.8 0 0 1 1.6 0v.8h2.4a.8.8 0 0 1 .8.8v12.8a.8.8 0 0 1-.8.8zM1.6 6.4v8h12.8v-8zm0-3.2v1.6h12.8V3.2zM8 12.8a.8.8 0 1 1 .8-.8.8.8 0 0 1-.8.8zm-3.2 0a.8.8 0 1 1 .8-.8.8.8 0 0 1-.8.8zm6.4-3.2a.8.8 0 1 1 .8-.8.8.8 0 0 1-.8.8zM8 9.6a.8.8 0 1 1 .8-.8.8.8 0 0 1-.8.8zm-3.2 0a.8.8 0 1 1 .8-.8.8.8 0 0 1-.8.8z" class="cls-1"/>
        </clipPath>
        <style>
            .cls-1{fill:#ea788c;stroke:transparent;stroke-miterlimit:10}
        </style>
    </defs>
    <g id="calender" transform="translate(.5 .5)">
        <path id="Icon-2" d="M15.2 16H.8a.8.8 0 0 1-.8-.8V2.4a.8.8 0 0 1 .8-.8h2.4V.8a.8.8 0 0 1 1.6 0v.8h6.4V.8a.8.8 0 0 1 1.6 0v.8h2.4a.8.8 0 0 1 .8.8v12.8a.8.8 0 0 1-.8.8zM1.6 6.4v8h12.8v-8zm0-3.2v1.6h12.8V3.2zM8 12.8a.8.8 0 1 1 .8-.8.8.8 0 0 1-.8.8zm-3.2 0a.8.8 0 1 1 .8-.8.8.8 0 0 1-.8.8zm6.4-3.2a.8.8 0 1 1 .8-.8.8.8 0 0 1-.8.8zM8 9.6a.8.8 0 1 1 .8-.8.8.8 0 0 1-.8.8zm-3.2 0a.8.8 0 1 1 .8-.8.8.8 0 0 1-.8.8z" class="cls-1"/>
    </g>
</svg>
