<svg xmlns="http://www.w3.org/2000/svg" xmlns:xlink="http://www.w3.org/1999/xlink" width="38.596" height="43.369" xmlns:v="https://vecta.io/nano"><path d="M27.392 23.941l-8.393-1.1-8.393 1.1s-2.007 5.985-1.916 9.357 1.277 5.648 4.1 6.828a15.85 15.85 0 0 0 12.406 0c2.828-1.18 4.014-3.456 4.1-6.828s-1.904-9.357-1.904-9.357z" fill="#fafafa"/><path fill="#b1b1d4" d="M27.391 23.941l-2.728-.356c.824 2.545 1.312 5.187 1.451 7.858-.091 3.372-1.277 5.648-4.1 6.828a19.86 19.86 0 0 1-6.2 1.264 20.82 20.82 0 0 1-5.276-.92c.642.656 1.414 1.17 2.266 1.51a15.85 15.85 0 0 0 12.406 0c2.828-1.18 4.014-3.456 4.1-6.828s-1.919-9.356-1.919-9.356z" opacity=".32"/><g fill="#334350"><path d="M6.2 36.614c-1.242 1.709-2.621 1.831-3.3 2.955-.593.899-.489 2.087.251 2.869.573.671.657.925 1.458.93 1.702-.076 3.393-.315 5.049-.714l5.3-1.269a1.52 1.52 0 0 0 1.252-.91c.2-.7-.335-1.359-.817-1.815l-4.266-4.046c-1.23-1.155-2.624-1.17-4.927 2z"/><path d="M2.205 42.567a9.09 9.09 0 0 1-1.9-4.716 1.26 1.26 0 0 1 .108-.827c.147-.21.409-.306.657-.243-.052-.269.021-.547.2-.754a1.49 1.49 0 0 1 .667-.437 1.53 1.53 0 0 1 .772-.084c.26.039.495.189.642.41a1.19 1.19 0 0 1 1.458-.047 2.77 2.77 0 0 1 .919 1.259 9.01 9.01 0 0 1 .742 3.715 3.36 3.36 0 0 1-.359 1.639c-.235.444-.67.747-1.168.814a2.97 2.97 0 0 1-2.738-.729zm30.193-5.953c1.242 1.709 2.621 1.831 3.3 2.955.593.899.489 2.087-.251 2.869-.573.671-.657.925-1.458.93a26.61 26.61 0 0 1-5.049-.714l-5.3-1.269a1.52 1.52 0 0 1-1.251-.91c-.2-.7.335-1.359.817-1.815l4.267-4.046c1.225-1.155 2.625-1.17 4.925 2z"/><path d="M36.391 42.567a9.09 9.09 0 0 0 1.9-4.716 1.26 1.26 0 0 0-.108-.827c-.147-.21-.409-.306-.657-.243a.89.89 0 0 0-.2-.754 1.49 1.49 0 0 0-.667-.437 1.53 1.53 0 0 0-.772-.084c-.26.039-.495.189-.642.41a1.19 1.19 0 0 0-1.458-.047 2.77 2.77 0 0 0-.919 1.259 9.01 9.01 0 0 0-.742 3.715 3.37 3.37 0 0 0 .359 1.639c.235.444.67.747 1.168.814a2.97 2.97 0 0 0 2.738-.729zm-7.758-14.193a12.41 12.41 0 0 0-1.428-5.279l-8.393-1.1-8.393 1.1a20.07 20.07 0 0 0-1.544 5.875 12.83 12.83 0 0 1 4.928-2.956 18.91 18.91 0 0 1 7.109-.712c5.971.425 7.666 3.027 7.721 3.072zM4.695 11.422s-7.778-3.253-3.312-9.107c3.938-5.161 9.109.658 9.109.658z"/></g><path d="M5.269 8.937S.929 7.122 3.421 3.856c2.2-2.88 5.083.367 5.083.367z" fill="#f09fad"/><path d="M.739 3.322c3.773-4.945 8.68.191 9.083.629l.671-.978s-5.172-5.819-9.109-.658c-.27.351-.512.723-.723 1.112z" fill="#334350"/><path d="M.553 5.861a2.75 2.75 0 0 0 .415 1.58.71.71 0 0 0 .6.386.55.55 0 0 0 .435-.469 1.12 1.12 0 0 0-.13-.673c-.1-.207-.237-.4-.343-.6a2.5 2.5 0 0 1-.214-1.675c.025-.113.05-.256-.04-.326C.81 3.714.557 5.661.553 5.861z" fill="#fff" opacity=".22"/><path d="M27.517 3.81s4.436-7.17 9.515-1.839c4.477 4.7-2.083 8.892-2.083 8.892z" fill="#334350"/><path d="M29.88 4.767s2.475-4 5.309-1.026c2.5 2.623-1.162 4.962-1.162 4.962z" fill="#f09fad"/><path d="M36.139 1.177c4.29 4.5-1.554 8.541-2.05 8.871l.86.816s6.56-4.192 2.083-8.892a8.3 8.3 0 0 0-.985-.889z" fill="#334350"/><path d="M33.662.594a2.75 2.75 0 0 0-1.625.162c-.232.106-.464.288-.476.536a.55.55 0 0 0 .394.5 1.12 1.12 0 0 0 .685-.023c.221-.068.428-.172.647-.244a2.5 2.5 0 0 1 1.688.052c.108.043.245.089.328.012.436-.404-1.449-.96-1.641-.995z" fill="#fff" opacity=".22"/><path d="M35.396 12.191c-.528-4.352-3.088-8.195-6.9-10.359-3.994-2.233-13.814-2.437-18.567 0-3.94 2.02-6.325 6.784-6.631 10.253S3.91 21.624 8.96 22.95s15.456 1.326 20.506 0 6.236-7.29 5.93-10.759z" fill="#fafafa"/><g fill="#334350"><path d="M16.199 8.662a8.12 8.12 0 0 0-2.672 5.158c-.112.623-.597 1.113-1.22 1.23-3.129.6-5.51-2.8-3.942-6.566 2.063-4.877 7.217-4.289 8.288-1.54a1.51 1.51 0 0 1-.454 1.718zm6.543 0c1.496 1.331 2.447 3.168 2.672 5.158.112.623.597 1.113 1.22 1.23 3.129.6 5.509-2.8 3.942-6.566-2.063-4.877-7.217-4.289-8.288-1.54a1.51 1.51 0 0 0 .454 1.718zm-1.004 5.329a2.22 2.22 0 0 1-3.379 2 2.22 2.22 0 0 1-1.049-2.04c.009-1 1-1.256 2.225-1.245s2.209.287 2.203 1.285z"/><path d="M15.456 15.521a6.54 6.54 0 0 0 .43.7 2.61 2.61 0 0 0 .5.526c.184.15.395.262.621.332a1.64 1.64 0 0 0 .717.034c.482-.073.908-.35 1.17-.761a2.02 2.02 0 0 0 .236-1.433.36.36 0 0 1 .71-.118 3.14 3.14 0 0 1 .012.98c-.049.338-.168.661-.35.95s-.428.539-.717.726-.609.309-.946.362a2.61 2.61 0 0 1-1.013-.037 2.23 2.23 0 0 1-.926-.446c-.132-.112-.249-.24-.347-.382s-.176-.288-.233-.447c-.057-.153-.094-.313-.111-.476s-.014-.319.012-.477c.008-.052.049-.094.101-.104s.105.014.132.06z"/><path d="M22.726 17.489s-.056 1.935-.794 2.579c-.513-.839-1.426-1.351-2.409-1.351s-1.896.512-2.409 1.351l-.643-1.575v-1l.1-.214a1.95 1.95 0 0 0 2.655-.954h.591c.219.495.635.877 1.148 1.053s1.075.13 1.552-.127l.21.238z"/></g><path d="M21.808 19.862c-.583.648-1.414 1.018-2.285 1.018s-1.702-.37-2.285-1.018a2.5 2.5 0 0 1 4.571 0z" fill="#f09fad"/><g fill="#334350"><path d="M23.829 15.559a1.9 1.9 0 0 1-.1.954 1.98 1.98 0 0 1-.58.828c-.269.22-.586.373-.925.446a2.65 2.65 0 0 1-1.013.038 2.41 2.41 0 0 1-2.013-2.038 3.15 3.15 0 0 1 .012-.979.36.36 0 0 1 .589-.234.36.36 0 0 1 .121.349 2.02 2.02 0 0 0 .237 1.432c.406.624 1.166.917 1.886.727a1.78 1.78 0 0 0 .62-.332c.392-.34.708-.758.929-1.227.033-.061.11-.083.171-.05.034.017.058.049.066.086z"/><path d="M19.524 21.239a3.43 3.43 0 0 1-2.553-1.138 4.28 4.28 0 0 1-1.01-2.927.36.36 0 0 1 .719 0 3.58 3.58 0 0 0 .825 2.447c.515.572 1.248.899 2.017.899s1.503-.327 2.017-.899a3.58 3.58 0 0 0 .826-2.447.36.36 0 0 1 .719 0 4.28 4.28 0 0 1-1.01 2.928 3.43 3.43 0 0 1-2.551 1.137z"/></g><ellipse cx="2.654" cy="1.828" rx="2.654" ry="1.828" transform="matrix(.129038 -.99164 .99164 .129038 9.93 14.898)" fill="#fff"/><use xlink:href="#B" fill="#000072"/><ellipse cx="2.654" cy="1.828" rx="2.654" ry="1.828" transform="matrix(.129038 -.99164 .99164 .129038 9.93 14.898)" fill="#fff"/><g fill="#334350"><use xlink:href="#B"/><ellipse cx="2.161" cy="1.488" rx="2.161" ry="1.488" transform="matrix(.129038 -.99164 .99164 .129038 10.663 14.538)"/></g><g fill="#fff"><circle cx=".67" cy=".67" r=".67" transform="matrix(.325799 -.945439 .945439 .325799 10.757 12.179)"/><ellipse cx="1.828" cy="2.654" rx="1.828" ry="2.654" transform="matrix(.992 -.129 .129 .992 24.74 10.106)"/></g><use xlink:href="#C" fill="#000072"/><ellipse cx="1.828" cy="2.654" rx="1.828" ry="2.654" transform="matrix(.992 -.129 .129 .992 24.74 10.106)" fill="#fff"/><g fill="#334350"><use xlink:href="#C"/><ellipse cx="1.488" cy="2.161" rx="1.488" ry="2.161" transform="matrix(.992 -.129 .129 .992 24.809 10.637)"/></g><circle cx=".67" cy=".67" r=".67" transform="matrix(.985859 -.167578 .167578 .985859 26.6 11.216)" fill="#fff"/><path fill="#b1b1d4" d="M35.408 12.051a12.95 12.95 0 0 0-8.741-10.957C24.143.065 18.235-.295 14.967.317a26.3 26.3 0 0 0-3.519.838c-.349.121-.691.262-1.025.421-.161.072-.46.237-.912.493.415-.172 1.867-.7 2.408-.837A27.6 27.6 0 0 1 14.9.597a30.14 30.14 0 0 1 11.422 1c5.827 1.8 7.48 8.332 7.589 9.569.306 3.469-2.439 7.852-7.489 9.178s-15.456 1.326-20.506 0c-.313-.082-.62-.186-.918-.311.902 1.443 2.322 2.485 3.969 2.913 5.05 1.326 15.456 1.326 20.506 0s6.241-7.426 5.935-10.895z" opacity=".1"/><g fill="#7b7b7b"><ellipse cx="1.854" cy="2.54" rx="1.854" ry="2.54" transform="matrix(.961262 -.275637 .275637 .961262 .988 37.982)" opacity=".38"/><ellipse cx="1.854" cy="2.54" rx="1.854" ry="2.54" transform="matrix(-.961262 -.275637 .275637 -.961262 36.161 42.866)" opacity=".38"/></g><g transform="matrix(.966 -.259 .259 .966 8.304 22.127)"><path fill="#e23648" d="M17.906 8.865c-1.677 6.438-11.58 8.227-11.58 8.227s-.642-.536-1.521-1.45C2.638 13.379-.951 8.8.234 4.26 1.028 1.207 2.853 0 4.678 0a5.028 5.028 0 0 1 4.86 4.761c2.079-3.434 7.895-3.166 8.58 1.211a7.09 7.09 0 0 1-.212 2.893z"/><path d="M8.651 4.652c.074 1.13-.316 2.242-1.079 3.079S5.737 9.057 4.605 9.087A4.14 4.14 0 0 1 .944 4.652C1.055 2.571 2.716.909 4.797.798a4.07 4.07 0 0 1 3.854 3.854zm6.778.043a2.37 2.37 0 0 1-2.406 2.51 2.25 2.25 0 0 1-2.2-1.935c.028-1.233 1.02-2.225 2.253-2.254a2.28 2.28 0 0 1 2.353 1.679z" fill="#f16070"/><path fill="#bc334d" d="M17.905 8.866c-1.676 6.437-11.579 8.226-11.579 8.226s-.642-.536-1.521-1.45c3.392-.748 12.067-3.27 13.313-9.67.129.969.057 1.954-.213 2.894z"/></g><path d="M6.981 29.113a4.52 4.52 0 0 0 .055 2.613 3.62 3.62 0 0 0 2.137 1.92 9.65 9.65 0 0 0 2.905.483 4.4 4.4 0 0 0 2.021-.217.57.57 0 0 0 .326-.278c.054-.137-.031-.329-.178-.328.343-.143.607-.429.724-.782.074-.36-.278-.789-.619-.653.164-.041.164-.3.035-.408a.84.84 0 0 0-.479-.132 5.58 5.58 0 0 1-3.312-1.442c-1.9-2.066-1.1-3.651-.363-6.666a11.43 11.43 0 0 0-3.252 5.89zm23.614.237a4.52 4.52 0 0 1-.194 2.607c-.466.882-1.275 1.534-2.237 1.8-.953.258-1.94.369-2.927.328a4.4 4.4 0 0 1-2.007-.324.57.57 0 0 1-.311-.3c-.046-.139.049-.327.2-.318-.335-.161-.583-.46-.681-.819-.055-.363.32-.773.653-.619-.161-.05-.147-.307-.014-.41a.84.84 0 0 1 .485-.106 5.57 5.57 0 0 0 3.385-1.263c2.424-2.38 1.265-4.154.466-6.556a11.57 11.57 0 0 1 3.182 5.98z" fill="#334350"/><defs ><path id="B" d="M11.907 15.192a1.3 1.3 0 0 1-.17-.011c-1.025-.133-1.7-1.443-1.51-2.92a3.38 3.38 0 0 1 .785-1.817 1.51 1.51 0 0 1 2.639.344c.291.608.394 1.29.294 1.957-.183 1.394-1.077 2.447-2.038 2.447zm.355-5.286c-.462.022-.892.24-1.182.6-.425.5-.69 1.115-.762 1.767-.186 1.426.456 2.689 1.43 2.816a1.2 1.2 0 0 0 .159.01c.916 0 1.769-1.018 1.945-2.367.097-.647-.002-1.309-.284-1.9a1.55 1.55 0 0 0-1.146-.913 1.22 1.22 0 0 0-.161-.013z"/><path id="C" d="M27.074 15.191c-.962 0-1.856-1.052-2.037-2.447-.1-.667.002-1.349.293-1.957a1.51 1.51 0 0 1 2.639-.344 3.38 3.38 0 0 1 .785 1.817c.192 1.476-.485 2.786-1.51 2.92-.056.007-.113.011-.17.011zm-.355-5.286a1.23 1.23 0 0 0-.16.01 1.55 1.55 0 0 0-1.147.913c-.282.591-.381 1.253-.284 1.9.186 1.426 1.128 2.483 2.1 2.356s1.616-1.39 1.43-2.817c-.072-.652-.337-1.267-.762-1.767-.29-.357-.718-.573-1.177-.594z"/></defs></svg>