<svg xmlns="http://www.w3.org/2000/svg" width="184" height="184" viewBox="0 0 184 184">
    <defs>
        <clipPath id="clip-path">
            <rect id="Rectangle_4520" width="184" height="184" fill="#fff" stroke="#707070" rx="8" transform="translate(416 168)"/>
        </clipPath>
        <style>
            .cls-3{fill:#fff}
        </style>
    </defs>
    <g id="Mask_Group_596" clip-path="url(#clip-path)" transform="translate(-416 -168)">
        <g id="Group_19596" transform="translate(-2597.898 -1328.348)">
            <path id="Path_16668" d="M3142.122 1545.578c1.25 2.715-6.606 4.528-5.543 7.322 2.066 5.428 6.512 9.563 11 13.249a26.053 26.053 0 0 0 6.468 4.241 19.618 19.618 0 0 0 9.819.986 31.96 31.96 0 0 0 17.4-7.961 9.975 9.975 0 0 0 3.033-4.125 11.164 11.164 0 0 0 .336-3.8 90.915 90.915 0 0 0-1.035-11.76c-5.112-31.156-51.362-32.647-52.137 4.488z" class="cls-3" transform="translate(-62.734)"/>
            <path id="Path_16669" d="M3173.211 1562.108s.234-21.08-22.926-24.195c-15.735-2.115-20.654 12.618-21 32.509s5.575 32.937 19.1 29.949c14.249-3.15 22.731-9.824 26.045-20.487 0 0 10.981-1.087 10.069-12.894-1.012-13.047-11.288-4.882-11.288-4.882z" class="cls-3" transform="translate(-61.762 -7.694)"/>
            <path id="Path_16670" d="M3150.6 1649.913s6.214-2.663 6.267-23.512l29.016-20.975s.645 36.81 8.238 41.824c0 0-3.87 40.776-26.455 41.814-13.712.631-15.822-29.001-17.066-39.151z" class="cls-3" transform="translate(-71.216 -37.702)"/>
            <path id="Path_16671" fill="#cfe8ff" d="M3079.388 1683.2s11.485 22.533 15.38 22.744c3.585.194 19.38-14.2 28.141-25.407 0 0 85.751 9.253 111.869 76.847 0 0-121.876 108.61-244.881 4.029.003-.002 27.974-65.942 89.491-78.213z" transform="translate(0 -70.985)"/>
        </g>
    </g>
</svg>
